<svg xmlns="http://www.w3.org/2000/svg" viewBox="0 0 366 293">
    <g fill="none" fill-rule="evenodd">
        <circle cx="234" cy="161" r="128" stroke="#5A5A5A" stroke-width="7"/>
        <circle cx="234" cy="161" r="103" stroke="#5A5A5A" stroke-width="7"/>
        <rect width="50" height="20" x="209" y="3" stroke="#5A5A5A" stroke-width="5" rx="4"/>
        <path stroke="#5A5A5A" stroke-linecap="square" stroke-width="5" d="M222.5 25v8M246.5 25v8"/>
        <path stroke="#5A5A5A" stroke-linecap="round" stroke-width="5" d="M234.5 58v20"/>
        <path class="primary-stroke" id="stopwatch-hand" stroke-linecap="round" stroke-width="7" d="M234.5 91v70"/>
        <circle class="primary-stroke background-fill" cx="234" cy="161" r="15" stroke-width="7"/>
        <path stroke="#5A5A5A" stroke-linecap="round" stroke-width="5" d="M234.5 244v20M317 161h20M131.5 161h20"/>
        <path stroke="#5A5A5A" stroke-width="5"
              d="M314.0000007 59.60660186l5.55583903-5.55583903c3.3671751-3.3671751 8.5862966-1.51522878 15.65736441 5.55583903 7.07106781 7.07106781 8.92301413 12.2901893 5.55583903 15.6573644l-5.55583903 5.55583903-21.21320343-21.21320343z"/>
        <path class="primary-stroke" stroke-linecap="round" stroke-width="10" d="M93.5 141H61"/>
        <path class="secondary-stroke" stroke-linecap="round" stroke-width="10" d="M93.5 181H82.8680706"/>
        <path class="primary-stroke" stroke-linecap="round" stroke-width="10"
              d="M67.5 181H47.25M98.5 121H67.2361411M98.5 201H71.7077562"/>
        <path class="secondary-stroke" stroke-linecap="round" stroke-width="10" d="M46.5 141H38"/>
        <path class="primary-stroke" stroke-linecap="round" stroke-width="10" d="M106.5 101h-3"/>
        <path class="secondary-stroke" stroke-linecap="round" stroke-width="10" d="M106.5 221h-3"/>
        <path class="primary-stroke" stroke-linecap="round" stroke-width="10" d="M92.5 161H28.2692099"/>
        <path stroke="#E1E1E1" stroke-linecap="round" stroke-width="10" d="M122 253H48"/>
        <path stroke="#E7E7E7" stroke-linecap="round" stroke-width="10" d="M63 221H25M83 101H63M9.79126393 161H5"/>
        <path stroke="#DADADA" stroke-linecap="round" stroke-width="10" d="M147 49h-43"/>
        <path stroke="#EEE" stroke-linecap="round" stroke-width="10" d="M84 49H66"/>
    </g>
</svg>